<svg xmlns="http://www.w3.org/2000/svg" width="32" height="40" viewBox="0 0 32 40"><g><g><path fill="#fff" d="M29.96 5.967l-8.433-4.868a3.246 3.246 0 0 0-4.434 1.187l-5.68 9.838a3.246 3.246 0 0 0 1.188 4.434l1.406.811 1.622-2.81a1.623 1.623 0 0 1-.594-2.217l4.058-7.027a1.622 1.622 0 0 1 2.216-.594l5.622 3.245a1.623 1.623 0 0 1 .594 2.217l-4.057 7.027a1.623 1.623 0 0 1-2.217.594l-1.623 2.811 1.406.811a3.245 3.245 0 0 0 4.433-1.188l5.68-9.837a3.246 3.246 0 0 0-1.188-4.434zM14.165 26.83l6.491-11.243a1.623 1.623 0 0 0-2.81-1.623l-6.492 11.244a1.623 1.623 0 1 0 2.81 1.622zm-1.782-6.65l-1.406-.811a3.246 3.246 0 0 0-4.433 1.188l-5.68 9.837a3.246 3.246 0 0 0 1.188 4.434l8.432 4.868a3.245 3.245 0 0 0 4.434-1.188l5.68-9.837a3.246 3.246 0 0 0-1.188-4.434l-1.406-.811-1.623 2.81a1.623 1.623 0 0 1 .595 2.217l-4.058 7.027a1.623 1.623 0 0 1-2.216.594L5.08 32.83a1.623 1.623 0 0 1-.594-2.217l4.057-7.027a1.623 1.623 0 0 1 2.217-.594z"/></g></g></svg>